<svg xmlns="http://www.w3.org/2000/svg" viewBox="0 0 59 64" style="fill:#000F0C"><g id="Layer_2" data-name="Layer 2"><g id="Layer_1-2" data-name="Layer 1"><path d="M41,0H23A18,18,0,0,0,5,18v7.28A17.45,17.45,0,0,0,0,37.5V38A17.51,17.51,0,0,0,10,53.29V57a7,7,0,0,0,7,7H44a7,7,0,0,0,7-7V53.81A16,16,0,0,0,59,40V19h0c0-.33,0-.66,0-1A18,18,0,0,0,41,0ZM51,40a8,8,0,0,1-5.27,7.47A4.06,4.06,0,0,0,43,51.27V56H18V53.29a8,8,0,0,0-4.56-7.22A9.54,9.54,0,0,1,8,38H8a9.51,9.51,0,0,1,9-10H28.82A4.12,4.12,0,0,1,33,31.6,4,4,0,0,1,29.42,36L29,36H26a4,4,0,0,0,0,8h3a12,12,0,0,0,11.3-8H41a17.87,17.87,0,0,0,10-3ZM41,28h-.7A12,12,0,0,0,29,20H17.5a17.56,17.56,0,0,0-4.5.61V18A10,10,0,0,1,23,8H41a10,10,0,0,1,0,20Z"/></g></g></svg>