<svg xmlns="http://www.w3.org/2000/svg" viewBox="0 0 66 64" style="fill:#000F0C"><g id="Layer_2" data-name="Layer 2"><g id="Layer_1-2" data-name="Layer 1"><path d="M5.63,37.4l4.37.87V58a6,6,0,0,0,6,6H50a6,6,0,0,0,6-6V38.28l4.37-.87A7,7,0,0,0,66,30.54V17.34a7,7,0,0,0-5.3-6.79L50,7.88A8,8,0,0,0,42,0H24a8,8,0,0,0-8,7.88L5.3,10.55A7,7,0,0,0,0,17.34v13.2A7,7,0,0,0,5.63,37.4ZM48,56H18V48H48ZM42,8,33,19,24,8ZM8,18.12l11.58-2.89,7.23,8.84a8,8,0,0,0,11.26,1.12,7.9,7.9,0,0,0,1.12-1.12l7.23-8.84L58,18.12v11.6l-6.78,1.36A4,4,0,0,0,48,35v5H18V35a4,4,0,0,0-3.22-3.92L8,29.72Z"/></g></g></svg>