<svg xmlns="http://www.w3.org/2000/svg" viewBox="0 0 60 64" style="fill:#000F0C"><g id="Layer_2" data-name="Layer 2"><g id="Layer_1-2" data-name="Layer 1"><path d="M0,51v3A10,10,0,0,0,10,64H50A10,10,0,0,0,60,54V51a15.41,15.41,0,0,0-4.88-11.23A48.92,48.92,0,0,0,46.5,33.3,19.93,19.93,0,0,0,50,22V20.4A20.3,20.3,0,0,0,30.37,0H30A20,20,0,0,0,10,20v2a19.93,19.93,0,0,0,3.5,11.3,49.3,49.3,0,0,0-8.62,6.45A15.42,15.42,0,0,0,0,51ZM30,8h.22a12,12,0,0,1,10.55,7H19.1A12,12,0,0,1,30,8ZM8,51a7.38,7.38,0,0,1,2.34-5.39,38.16,38.16,0,0,1,12.66-8,3.07,3.07,0,0,0,2-2.88V34.7a3.13,3.13,0,0,0-1.49-2.61A12,12,0,0,1,18.06,23H41.94a12,12,0,0,1-5.45,9.08A3.14,3.14,0,0,0,35,34.7v.09a3,3,0,0,0,2,2.86,38,38,0,0,1,12.63,8A7.34,7.34,0,0,1,52,51v3a2,2,0,0,1-2,2H10a2,2,0,0,1-2-2Z"/></g></g></svg>