<svg width="148" height="199" viewBox="0 0 148 199" fill="none" xmlns="http://www.w3.org/2000/svg">
<g clip-path="url(#clip0_482_2760)">
<path d="M119.5 18H91.5C84.87 18 79.5 23.37 79.5 30C79.5 36.63 84.34 41.44 90.5 41.95V51L99.5 42H119.5C126.13 42 131.5 36.63 131.5 30C131.5 23.37 126.13 18 119.5 18Z" fill="#CECECE"/>
<path d="M90.5 31H120.5" stroke="black" stroke-width="2" stroke-miterlimit="10" stroke-linecap="round"/>
<path d="M68.5 12C68.5 5.37 63.13 0 56.5 0H28.5C21.87 0 16.5 5.37 16.5 12C16.5 18.63 21.87 24 28.5 24H48.5L57.5 33V23.95C63.66 23.44 68.5 18.29 68.5 12Z" fill="#606060"/>
<path d="M27.5 12H57.5" stroke="black" stroke-width="2" stroke-miterlimit="10" stroke-linecap="round"/>
</g>
<g clip-path="url(#clip1_482_2760)">
<path d="M101.896 179.241C101.896 179.241 117.31 192.482 133.425 184.187C135.658 183.038 137.106 180.644 136.889 178.14C136.672 175.637 134.813 172.517 128.271 170.728L101.896 179.241Z" fill="#F4F4F4"/>
<path d="M72.262 192.784C55.6403 193.147 6.71676 191.116 1.70732 155.044C1.70732 155.044 -6.98376 122.285 22.2521 97.2897C34.999 86.3943 51.3068 80.6866 68.0492 80.2513C91.3582 79.6467 126.968 85.9106 144.748 125.417C144.748 125.417 159.511 162.867 120.63 182.603C113.822 186.061 106.447 188.25 98.9026 189.374L81.3514 191.986C78.3337 192.434 75.3039 192.712 72.262 192.772V192.784Z" fill="#F4F4F4"/>
<path d="M35.6019 102.332C35.6019 102.332 10.6633 89.8407 20.1631 77.8691C22.6498 74.7371 26.4883 72.9958 30.4838 72.766C37.7747 72.3428 51.7287 74.0841 66.8898 89.2844" fill="#F4F4F4"/>
<path d="M41.541 78.8728C41.879 76.7445 43.2551 69.6703 49.3871 64.9663C57.7402 58.5573 68.2057 61.6409 71.1148 62.5478C78.623 64.9059 83.1375 69.6099 86.8071 73.4311C93.2771 80.1788 96.8622 87.3859 98.878 92.7792L77.1503 101.244C65.2846 93.7829 53.4068 86.3339 41.541 78.8728Z" fill="#F4F4F4"/>
<path d="M57.7162 139.372C60.8295 139.372 63.3534 136.843 63.3534 133.724C63.3534 130.606 60.8295 128.077 57.7162 128.077C54.6029 128.077 52.0791 130.606 52.0791 133.724C52.0791 136.843 54.6029 139.372 57.7162 139.372Z" fill="black"/>
<path d="M109.79 135.236C112.904 135.236 115.428 132.708 115.428 129.589C115.428 126.47 112.904 123.942 109.79 123.942C106.677 123.942 104.153 126.47 104.153 129.589C104.153 132.708 106.677 135.236 109.79 135.236Z" fill="black"/>
<path d="M79.142 145.515C77.6573 146.035 77.1382 147.885 78.0797 149.142C79.8904 151.537 83.4755 154.705 89.6679 154.391C95.7637 154.076 98.9987 150.654 100.58 148.09C101.437 146.712 100.64 144.898 99.047 144.584C94.8946 143.761 86.8433 142.794 79.1178 145.527L79.142 145.515Z" fill="#CECECE"/>
<path d="M99.2282 145.539C100.713 145.019 101.232 143.169 100.29 141.911C98.4798 139.517 94.8947 136.349 88.7023 136.663C82.6065 136.977 79.3715 140.4 77.7902 142.963C76.9332 144.342 77.7299 146.156 79.3232 146.47C83.4756 147.292 91.5269 148.26 99.2523 145.527L99.2282 145.539Z" fill="#E0E0E0"/>
<path d="M53.6123 191.333C53.6123 191.333 69.0269 204.575 85.1416 196.279C87.3747 195.13 88.8233 192.736 88.606 190.233C88.3887 187.73 86.5298 184.61 79.9873 182.82L53.6123 191.333Z" fill="#F4F4F4"/>
<path d="M86.2644 198.492C86.2644 198.492 101.22 193.776 103.091 186.448C103.393 185.287 102.089 184.235 100.291 184.247C96.9351 184.283 90.3202 185.843 78.2855 193.51C75.9437 194.997 77.018 198.625 79.7823 198.589L86.2644 198.492Z" fill="#E0E0E0"/>
<path d="M129.466 186.146C131.337 185.819 133.136 185.166 134.777 184.187C138.893 181.732 146.317 176.58 146.824 171.163C146.933 169.966 145.484 169.131 143.722 169.434C140.414 169.99 134.125 172.566 123.431 182.022C121.354 183.86 122.972 187.27 125.7 186.799L129.478 186.146H129.466Z" fill="#E0E0E0"/>
<path d="M115.077 180.45H91.394C87.9296 180.45 86.0948 177.645 87.2899 174.174L99.6022 138.356C100.797 134.885 104.563 132.08 108.028 132.08H131.711C135.175 132.08 137.01 134.885 135.815 138.356L123.503 174.174C122.308 177.645 118.542 180.45 115.077 180.45Z" fill="#606060"/>
<path d="M50.0758 182.034C60.9638 184.162 79.9272 186.279 96.0299 179.978C99.5184 178.612 101.377 174.658 99.965 171.187C98.1664 166.773 91.4429 161.187 71.7914 156.434C62.9796 154.306 53.697 155.237 45.4405 158.986C40.6966 161.138 38.1014 166.338 39.2481 171.441C40.4552 176.81 44.6921 180.982 50.0758 182.034Z" fill="#E0E0E0"/>
<path d="M134.644 145.877C132.628 147.534 130.467 149.481 128.283 151.754C125.398 154.741 123.068 157.68 121.185 160.328C120.4 161.029 118.795 162.928 117.877 165.83C117.346 167.499 117.129 169.325 118.034 170.51C120.292 173.473 128.017 170.583 131.373 168.841C133.425 167.777 137.819 165.08 140.486 159.82C141.114 158.575 141.5 157.474 141.742 156.688L140.631 147.812C140.269 144.886 136.66 143.713 134.656 145.877H134.644Z" fill="#E0E0E0"/>
</g>
<defs>
<clipPath id="clip0_482_2760">
<rect width="115" height="51" fill="white" transform="translate(16.5)"/>
</clipPath>
<clipPath id="clip1_482_2760">
<rect width="147" height="138" fill="white" transform="translate(0.5 61)"/>
</clipPath>
</defs>
</svg>
