<svg width="34" height="40" viewBox="0 0 34 40" fill="none" xmlns="http://www.w3.org/2000/svg">
<g clip-path="url(#clip0_696_666)">
<path d="M27.767 8.64276C25.6136 7.73702 23.1149 8.7138 22.1881 10.8272C22.1336 10.9604 22.1064 11.0936 22.0609 11.2268H0V18.89C0 27.3613 7.02352 34.2254 15.6916 34.2254H18.3175C26.9856 34.2254 34.0091 27.3613 34.0091 18.89V13.5266C34.0091 12.1325 33.155 10.8805 31.8466 10.3299L27.7761 8.64276H27.767Z" fill="url(#paint0_linear_696_666)"/>
<path d="M16.0551 23.7384H14.0289C6.27846 23.7384 0 17.6025 0 10.028V6.68033C0 3.27049 2.83485 0.5 6.32389 0.5H23.7418C27.24 0.5 30.0657 3.27049 30.0657 6.68033V10.028C30.0657 17.5936 23.7873 23.7295 16.046 23.7295L16.0551 23.7384Z" fill="url(#paint1_linear_696_666)"/>
<path d="M33.9999 13.5178C33.9999 13.1093 33.9908 12.3456 33.4638 11.6086C33.0731 11.0492 32.4916 10.5963 31.8374 10.3299L27.7669 8.64276C25.6135 7.73702 23.1148 8.7138 22.1881 10.8272C22.1881 10.8272 19.9801 15.4269 27.1127 17.86C27.3035 17.9488 29.4296 18.9522 31.5649 17.8067C33.4275 16.8033 34.0272 14.8497 33.9999 13.5266V13.5178Z" fill="url(#paint2_linear_696_666)"/>
<path d="M27.8943 30.4959H6.09686C4.89754 30.4959 3.92529 31.4461 3.92529 32.6182V37.3777C3.92529 38.5498 4.89754 39.5 6.09686 39.5H27.8943C29.0936 39.5 30.0659 38.5498 30.0659 37.3777V32.6182C30.0659 31.4461 29.0936 30.4959 27.8943 30.4959Z" fill="url(#paint3_linear_696_666)"/>
<path d="M25.9408 33.5949H8.06859C7.72234 33.5949 7.44165 33.8693 7.44165 34.2077V34.2165C7.44165 34.5549 7.72234 34.8292 8.06859 34.8292H25.9408C26.2871 34.8292 26.5678 34.5549 26.5678 34.2165V34.2077C26.5678 33.8693 26.2871 33.5949 25.9408 33.5949Z" fill="white"/>
<path d="M25.9408 35.9126H8.06859C7.72234 35.9126 7.44165 36.1869 7.44165 36.5253V36.5342C7.44165 36.8725 7.72234 37.1469 8.06859 37.1469H25.9408C26.2871 37.1469 26.5678 36.8725 26.5678 36.5342V36.5253C26.5678 36.1869 26.2871 35.9126 25.9408 35.9126Z" fill="white"/>
</g>
<defs>
<linearGradient id="paint0_linear_696_666" x1="16.9182" y1="16.1462" x2="14.6246" y2="30.7788" gradientUnits="userSpaceOnUse">
<stop offset="0.09" stop-color="#F57902"/>
<stop offset="1" stop-color="#FFCA7F"/>
</linearGradient>
<linearGradient id="paint1_linear_696_666" x1="0.281667" y1="19.8224" x2="27.0719" y2="1.89883" gradientUnits="userSpaceOnUse">
<stop stop-color="#FB8901"/>
<stop offset="1" stop-color="#FFCA7F"/>
</linearGradient>
<linearGradient id="paint2_linear_696_666" x1="30.5109" y1="17.5936" x2="24.8624" y2="7.18293" gradientUnits="userSpaceOnUse">
<stop offset="0.09" stop-color="#F57902"/>
<stop offset="1" stop-color="#FFCA7F"/>
</linearGradient>
<linearGradient id="paint3_linear_696_666" x1="12.2845" y1="26.4822" x2="20.8852" y2="42.7466" gradientUnits="userSpaceOnUse">
<stop stop-color="#FB8901"/>
<stop offset="1" stop-color="#FFCA7F"/>
</linearGradient>
<clipPath id="clip0_696_666">
<rect width="34" height="39" fill="white" transform="translate(0 0.5)"/>
</clipPath>
</defs>
</svg>
